<svg xmlns="http://www.w3.org/2000/svg" viewBox="0 0 96 96" id="support">
  <path fill="none" stroke="#000" stroke-linecap="round" stroke-linejoin="round" stroke-miterlimit="10" d="M43.3 48.3c-2.6 0-4.8-2.1-4.8-4.8V31m19 0v11.3c0 3.3-2.7 5.9-5.9 5.9"></path>
  <path fill="none" stroke="#000" stroke-miterlimit="10" d="M40.9 34c-1.3 0-2.4-1.1-2.4-2.4v-2.4c0-1.3 1.1-2.4 2.4-2.4 1.3 0 2.4 1.1 2.4 2.4v2.4c0 1.3-1.1 2.4-2.4 2.4z"></path>
  <path fill="none" stroke="#000" stroke-miterlimit="10" d="M46.4 33.9c-.2.1-.5.1-.8.1-1.3 0-2.4-1.1-2.4-2.4V28c0-1.3 1.1-2.4 2.4-2.4 1.3 0 2.4 1.1 2.4 2.4v3.6c0 .2 0 .3-.1.5m.2.1c0-.2-.1-.4-.1-.6v-4.8c0-1.3 1.1-2.4 2.4-2.4 1.3 0 2.4 1.1 2.4 2.4v5.3m0 .2v-4.2c0-1.3 1.1-2.4 2.4-2.4 1.3 0 2.4 1.1 2.4 2.4v6.7m-4.1-2.7c2.2 0 4 1.8 4 4"></path>
  <path fill="none" stroke="#000" stroke-linecap="round" stroke-linejoin="round" stroke-miterlimit="10" d="M52.7 36.9h-4c-1.3 0-2.4-1.1-2.4-2.4 0-1.3 1.1-2.4 2.4-2.4h4.8m-.8 4.8.1 3.1-3.2 3.2m4.3 8.1v-3.5m-13-.1v3.6M24.3 56c-2.1 0-3.8-1.7-3.8-3.8v-9.8m15 0v8.9c0 2.6-2.1 4.7-4.7 4.7"></path>
  <path fill="none" stroke="#000" stroke-miterlimit="10" d="M22.4 44.8c-1 0-1.9-.8-1.9-1.9V41c0-1 .8-1.9 1.9-1.9 1 0 1.9.8 1.9 1.9v1.9c0 1-.9 1.9-1.9 1.9zm4.4-.2c-.2.1-.4.1-.6.1-1 0-1.9-.8-1.9-1.9V40c0-1 .8-1.9 1.9-1.9 1 0 1.9.8 1.9 1.9v3.2"></path>
  <path fill="none" stroke="#000" stroke-miterlimit="10" d="M28.1 43.3c0-.1-.1-.3-.1-.5V39c0-1 .8-1.9 1.9-1.9 1 0 1.9.8 1.9 1.9v4.2m.6.1c1.7 0 3.1 1.4 3.1 3.1"></path>
  <path fill="none" stroke="#000" stroke-linecap="round" stroke-linejoin="round" stroke-miterlimit="10" d="M31.7 47h-3.1c-1 0-1.9-.8-1.9-1.9 0-1 .8-1.9 1.9-1.9h3.8m-.7 3.8.1 2.5-2.5 2.5m3.4 6.1v-2.3m-10.3-.3v2.6"></path>
  <path fill="none" stroke="#000" stroke-miterlimit="10" d="M31.8 43.3v-3.2c0-1 .8-1.9 1.9-1.9 1 0 1.9.8 1.9 1.9v3.8"></path>
  <path fill="none" stroke="#000" stroke-linecap="round" stroke-linejoin="round" stroke-miterlimit="10" d="M21.5 58.3h12v3h-12zm0 13.2V61.3h12v10.2"></path>
  <g fill="none" stroke="#000" stroke-miterlimit="10">
    <path stroke-linecap="round" stroke-linejoin="round" d="M64.3 56c-2.1 0-3.8-1.7-3.8-3.8v-9.8m15 0v8.9c0 2.6-2.1 4.7-4.7 4.7"></path>
    <path d="M62.4 44.8c-1 0-1.9-.8-1.9-1.9V41c0-1 .8-1.9 1.9-1.9 1 0 1.9.8 1.9 1.9v1.9c0 1-.9 1.9-1.9 1.9zm4.4-.2c-.2.1-.4.1-.6.1-1 0-1.9-.8-1.9-1.9V40c0-1 .8-1.9 1.9-1.9 1 0 1.9.8 1.9 1.9v3.2"></path>
    <path d="M68.1 43.3c0-.1-.1-.3-.1-.5V39c0-1 .8-1.9 1.9-1.9 1 0 1.9.8 1.9 1.9v4.2m.6.1c1.7 0 3.1 1.4 3.1 3.1"></path>
    <path stroke-linecap="round" stroke-linejoin="round" d="M71.7 47h-3.1c-1 0-1.9-.8-1.9-1.9 0-1 .8-1.9 1.9-1.9h3.8m-.7 3.8.1 2.5-2.5 2.5m3.4 6.1v-2.3m-10.3-.3v2.6"></path>
    <path d="M71.8 43.3v-3.2c0-1 .8-1.9 1.9-1.9 1 0 1.9.8 1.9 1.9v3.8"></path>
  </g>
  <path fill="none" stroke="#000" stroke-linecap="round" stroke-linejoin="round" stroke-miterlimit="10" d="M61.5 58.3h12v3h-12zm0 13.2V61.3h12v10.2m-34-20.2h16v3h-16zm0 20.2V54.3h16v17.2"></path>
  <path d="M48 96C21.5 96 0 74.5 0 48S21.5 0 48 0s48 21.5 48 48-21.5 48-48 48zm0-95C22.1 1 1 22.1 1 48s21.1 47 47 47 47-21.1 47-47S73.9 1 48 1z"></path>
</svg>
